<?xml version="1.0" encoding="UTF-8"?>
<svg id="_레이어_1" data-name="레이어_1" xmlns="http://www.w3.org/2000/svg" version="1.1" viewBox="0 0 3700 2050">
  <!-- Generator: Adobe Illustrator 30.0.0, SVG Export Plug-In . SVG Version: 2.1.1 Build 123)  -->
  <path d="M3649.55,53.3v1594h-116.51l.1,353H59.27V53.3h3590.28M3669.55,33.3H39.27v1987h3513.88v-20.01s-.1-332.99-.1-332.99h116.5V33.3h0Z"/>
  <rect x="736.05" y="1658.89" width="10" height="344.4"/>
  <rect x="733.37" y="48.05" width="20" height="394.75"/>
  <rect x="446.05" y="422.8" width="296.68" height="20"/>
  <rect x="198.05" y="424.88" width="130" height="17.92"/>
  <rect x="194.3" y="188.3" width="20" height="254.5"/>
  <rect x="53.05" y="188.3" width="157.5" height="20"/>
  <rect x="735.42" y="531.3" width="44" height="44"/>
  <rect x="735.42" y="1015.05" width="44" height="44"/>
  <rect x="41.23" y="1015.05" width="44" height="44"/>
  <rect x="1435.42" y="1015.05" width="44" height="44"/>
  <rect x="2133.88" y="1015.05" width="44" height="44"/>
  <rect x="2835.42" y="1015.05" width="44" height="44"/>
  <rect x="3533.55" y="1015.05" width="44" height="44"/>
  <metadata>
    <sfw xmlns="http://ns.adobe.com/SaveForWeb/1.0/">
      <slices/>
      <sliceSourceBounds x="1489.27" y="-3245.3" width="3630.28" height="1987" bottomLeftOrigin="true"/>
      <optimizationSettings>
        <targetSettings fileFormat="PNG24Format" targetSettingsID="0">
          <PNG24Format filtered="false" interlaced="false" matteColor="#FFFFFF" noMatteColor="false" transparency="true"/>
        </targetSettings>
      </optimizationSettings>
    </sfw>
  </metadata>
</svg>